<svg width="718" height="55" viewBox="0 0 718 55" fill="none" xmlns="http://www.w3.org/2000/svg">
<g clip-path="url(#clip0_433_20678)">
<path d="M-909 14H-796.192C-769.635 14 -743.146 16.6898 -717.131 22.0282V22.0282C-672.089 31.2711 -625.774 32.5441 -580.292 25.7894L-544.57 20.4841C-515.502 16.1672 -486.157 14 -456.771 14H-357H-107.229H30.9011C66.2601 14 101.489 18.2861 135.816 26.7644L157.217 32.0499C218.081 47.0825 281.838 45.7586 342.027 28.2124V28.2124C374.365 18.7853 407.878 14 441.561 14H698" stroke="#250028" stroke-width="4" stroke-linecap="round" stroke-dasharray="8 8"/>
<path d="M695.488 3.42972C699.751 7.47764 716.808 13.866 715.409 15.9974C713.848 18.3732 708.321 19.0366 704.02 20.9029C699.778 22.7437 697.043 23.4405 693.672 25.3902C692.398 26.1273 692.675 24.6335 692.538 23.7728C691.641 18.1177 691.687 12.4138 691.964 6.71965C692.004 5.90751 691.397 2.60283 692.74 2.44108C693.377 2.36434 693.522 2.45945 694.06 2.5946C694.719 2.76021 695.022 2.9866 695.488 3.42972Z" fill="#FF2882" stroke="#250028" stroke-width="3" stroke-linecap="round"/>
</g>
<defs>
<clipPath id="clip0_433_20678">
<rect width="718" height="55" fill="white"/>
</clipPath>
</defs>
</svg>
