<svg width="3324" height="55" viewBox="0 0 3324 55" fill="none" xmlns="http://www.w3.org/2000/svg">
<g clip-path="url(#clip0_433_20637)">
<path d="M90 14H202.808C229.365 14 255.854 16.6898 281.869 22.0282V22.0282C326.911 31.2711 373.226 32.5441 418.708 25.7894L454.43 20.4841C483.498 16.1672 512.843 14 542.229 14H642H891.771H1029.9C1065.26 14 1100.49 18.2861 1134.82 26.7644L1156.22 32.0499C1217.08 47.0825 1280.84 45.7586 1341.03 28.2124V28.2124C1373.36 18.7853 1406.88 14 1440.56 14H1697" stroke="#250028" stroke-width="4" stroke-linecap="round" stroke-dasharray="8 8"/>
<path d="M-1517 14H-1404.19C-1377.64 14 -1351.15 16.6898 -1325.13 22.0282V22.0282C-1280.09 31.2711 -1233.77 32.5441 -1188.29 25.7894L-1152.57 20.4841C-1123.5 16.1672 -1094.16 14 -1064.77 14H-965H-715.229H-577.099C-541.74 14 -506.511 18.2861 -472.184 26.7644L-450.783 32.0499C-389.919 47.0825 -326.162 45.7586 -265.973 28.2124V28.2124C-233.635 18.7853 -200.122 14 -166.439 14H90" stroke="#250028" stroke-width="4" stroke-linecap="round" stroke-dasharray="8 8"/>
<path d="M1697 14H1809.81C1836.36 14 1862.85 16.6898 1888.87 22.0282V22.0282C1933.91 31.2711 1980.23 32.5441 2025.71 25.7894L2061.43 20.4841C2090.5 16.1672 2119.84 14 2149.23 14H2249H2498.77H2636.9C2672.26 14 2707.49 18.2861 2741.82 26.7644L2763.22 32.0499C2824.08 47.0825 2887.84 45.7586 2948.03 28.2124V28.2124C2980.36 18.7853 3013.88 14 3047.56 14H3304" stroke="#250028" stroke-width="4" stroke-linecap="round" stroke-dasharray="8 8"/>
<path d="M3304.54 3.42972C3308.25 7.47764 3323.11 13.866 3321.9 15.9974C3320.54 18.3732 3315.72 19.0366 3311.97 20.9029C3308.28 22.7437 3305.9 23.4405 3302.96 25.3902C3301.85 26.1273 3302.09 24.6335 3301.97 23.7728C3301.19 18.1177 3301.23 12.4138 3301.47 6.71965C3301.51 5.90751 3300.98 2.60283 3302.15 2.44108C3302.7 2.36434 3302.83 2.45945 3303.3 2.5946C3303.87 2.76021 3304.13 2.9866 3304.54 3.42972Z" fill="#FF2882" stroke="#250028" stroke-width="3" stroke-linecap="round"/>
</g>
<defs>
<clipPath id="clip0_433_20637">
<rect width="3324" height="55" fill="white"/>
</clipPath>
</defs>
</svg>
