<svg width="270" height="55" viewBox="0 0 270 55" fill="none" xmlns="http://www.w3.org/2000/svg">
<g clip-path="url(#clip0_433_20683)">
<path d="M-1357 14H-1244.19C-1217.64 14 -1191.15 16.6898 -1165.13 22.0282V22.0282C-1120.09 31.2711 -1073.77 32.5441 -1028.29 25.7894L-992.57 20.4841C-963.502 16.1672 -934.157 14 -904.771 14H-805H-555.229H-417.099C-381.74 14 -346.511 18.2861 -312.184 26.7644L-290.783 32.0499C-229.919 47.0825 -166.162 45.7586 -105.973 28.2124V28.2124C-73.6354 18.7853 -40.1225 14 -6.43863 14H250" stroke="#250028" stroke-width="4" stroke-linecap="round" stroke-dasharray="8 8"/>
<path d="M247.488 3.42972C251.751 7.47764 268.808 13.866 267.409 15.9974C265.848 18.3732 260.321 19.0366 256.02 20.9029C251.778 22.7437 249.043 23.4405 245.672 25.3902C244.398 26.1273 244.675 24.6335 244.538 23.7728C243.641 18.1177 243.687 12.4138 243.964 6.71965C244.004 5.90751 243.397 2.60283 244.74 2.44108C245.377 2.36434 245.522 2.45945 246.06 2.5946C246.719 2.76021 247.022 2.9866 247.488 3.42972Z" fill="#FF2882" stroke="#250028" stroke-width="3" stroke-linecap="round"/>
</g>
<defs>
<clipPath id="clip0_433_20683">
<rect width="270" height="55" fill="white"/>
</clipPath>
</defs>
</svg>
