<svg width="2792" height="55" viewBox="0 0 2792 55" fill="none" xmlns="http://www.w3.org/2000/svg">
<g clip-path="url(#clip0_433_20642)">
<path d="M-442 14H-329.192C-302.635 14 -276.146 16.6898 -250.131 22.0282V22.0282C-205.089 31.2711 -158.774 32.5441 -113.292 25.7894L-77.5695 20.4841C-48.5025 16.1672 -19.1567 14 10.2292 14H110H359.771H497.901C533.26 14 568.489 18.2861 602.816 26.7644L624.217 32.0499C685.081 47.0825 748.838 45.7586 809.027 28.2124V28.2124C841.365 18.7853 874.878 14 908.561 14H1165" stroke="#250028" stroke-width="4" stroke-linecap="round" stroke-dasharray="8 8"/>
<path d="M1165 14H1277.81C1304.36 14 1330.85 16.6898 1356.87 22.0282V22.0282C1401.91 31.2711 1448.23 32.5441 1493.71 25.7894L1529.43 20.4841C1558.5 16.1672 1587.84 14 1617.23 14H1717H1966.77H2104.9C2140.26 14 2175.49 18.2861 2209.82 26.7644L2231.22 32.0499C2292.08 47.0825 2355.84 45.7586 2416.03 28.2124V28.2124C2448.36 18.7853 2481.88 14 2515.56 14H2772" stroke="#250028" stroke-width="4" stroke-linecap="round" stroke-dasharray="8 8"/>
<path d="M2771.54 3.42972C2775.25 7.47764 2790.11 13.866 2788.9 15.9974C2787.54 18.3732 2782.72 19.0366 2778.97 20.9029C2775.28 22.7437 2772.9 23.4405 2769.96 25.3902C2768.85 26.1273 2769.09 24.6335 2768.97 23.7728C2768.19 18.1177 2768.23 12.4138 2768.47 6.71965C2768.51 5.90751 2767.98 2.60283 2769.15 2.44108C2769.7 2.36434 2769.83 2.45945 2770.3 2.5946C2770.87 2.76021 2771.13 2.9866 2771.54 3.42972Z" fill="#FF2882" stroke="#250028" stroke-width="3" stroke-linecap="round"/>
</g>
<defs>
<clipPath id="clip0_433_20642">
<rect width="2792" height="55" fill="white"/>
</clipPath>
</defs>
</svg>
