<svg width="1110" height="55" viewBox="0 0 1110 55" fill="none" xmlns="http://www.w3.org/2000/svg">
<g clip-path="url(#clip0_433_20657)">
<path d="M-517 14H-404.192C-377.635 14 -351.146 16.6898 -325.131 22.0282V22.0282C-280.089 31.2711 -233.774 32.5441 -188.292 25.7894L-152.57 20.4841C-123.502 16.1672 -94.1567 14 -64.7708 14H35H284.771H422.901C458.26 14 493.489 18.2861 527.816 26.7644L549.217 32.0499C610.081 47.0825 673.838 45.7586 734.027 28.2124V28.2124C766.365 18.7853 799.878 14 833.561 14H1090" stroke="#250028" stroke-width="4" stroke-linecap="round" stroke-dasharray="8 8"/>
<path d="M1087.36 3.42972C1091.62 7.47764 1108.68 13.866 1107.28 15.9974C1105.72 18.3732 1100.19 19.0366 1095.89 20.9029C1091.65 22.7437 1088.91 23.4405 1085.54 25.3902C1084.27 26.1273 1084.55 24.6335 1084.41 23.7728C1083.51 18.1177 1083.56 12.4138 1083.84 6.71965C1083.88 5.90751 1083.27 2.60283 1084.61 2.44108C1085.25 2.36434 1085.39 2.45945 1085.93 2.5946C1086.59 2.76021 1086.89 2.9866 1087.36 3.42972Z" fill="#FF2882" stroke="#250028" stroke-width="3" stroke-linecap="round"/>
</g>
<defs>
<clipPath id="clip0_433_20657">
<rect width="1110" height="55" fill="white"/>
</clipPath>
</defs>
</svg>
