<svg width="1701" height="55" viewBox="0 0 1701 55" fill="none" xmlns="http://www.w3.org/2000/svg">
<g clip-path="url(#clip0_433_20652)">
<path d="M-1533 14H-1420.19C-1393.64 14 -1367.15 16.6898 -1341.13 22.0282V22.0282C-1296.09 31.2711 -1249.77 32.5441 -1204.29 25.7894L-1168.57 20.4841C-1139.5 16.1672 -1110.16 14 -1080.77 14H-981H-731.229H-593.099C-557.74 14 -522.511 18.2861 -488.184 26.7644L-466.783 32.0499C-405.919 47.0825 -342.162 45.7586 -281.973 28.2124V28.2124C-249.635 18.7853 -216.122 14 -182.439 14H74" stroke="#250028" stroke-width="4" stroke-linecap="round" stroke-dasharray="8 8"/>
<path d="M74 14H186.808C213.365 14 239.854 16.6898 265.869 22.0282V22.0282C310.911 31.2711 357.226 32.5441 402.708 25.7894L438.43 20.4841C467.498 16.1672 496.843 14 526.229 14H626H875.771H1013.9C1049.26 14 1084.49 18.2861 1118.82 26.7644L1140.22 32.0499C1201.08 47.0825 1264.84 45.7586 1325.03 28.2124V28.2124C1357.36 18.7853 1390.88 14 1424.56 14H1681" stroke="#250028" stroke-width="4" stroke-linecap="round" stroke-dasharray="8 8"/>
<path d="M1681.54 3.42972C1685.25 7.47764 1700.11 13.866 1698.9 15.9974C1697.54 18.3732 1692.72 19.0366 1688.97 20.9029C1685.28 22.7437 1682.9 23.4405 1679.96 25.3902C1678.85 26.1273 1679.09 24.6335 1678.97 23.7728C1678.19 18.1177 1678.23 12.4138 1678.47 6.71965C1678.51 5.90751 1677.98 2.60283 1679.15 2.44108C1679.7 2.36434 1679.83 2.45945 1680.3 2.5946C1680.87 2.76021 1681.13 2.9866 1681.54 3.42972Z" fill="#FF2882" stroke="#250028" stroke-width="3" stroke-linecap="round"/>
</g>
<defs>
<clipPath id="clip0_433_20652">
<rect width="1701" height="55" fill="white"/>
</clipPath>
</defs>
</svg>
