<svg width="2371" height="55" viewBox="0 0 2371 55" fill="none" xmlns="http://www.w3.org/2000/svg">
<g clip-path="url(#clip0_433_20647)">
<path d="M-863 14H-750.192C-723.635 14 -697.146 16.6898 -671.131 22.0282V22.0282C-626.089 31.2711 -579.774 32.5441 -534.292 25.7894L-498.57 20.4841C-469.502 16.1672 -440.157 14 -410.771 14H-311H-61.2292H76.9011C112.26 14 147.489 18.2861 181.816 26.7644L203.217 32.0499C264.081 47.0825 327.838 45.7586 388.027 28.2124V28.2124C420.365 18.7853 453.878 14 487.561 14H744" stroke="#250028" stroke-width="4" stroke-linecap="round" stroke-dasharray="8 8"/>
<path d="M744 14H856.808C883.365 14 909.854 16.6898 935.869 22.0282V22.0282C980.911 31.2711 1027.23 32.5441 1072.71 25.7894L1108.43 20.4841C1137.5 16.1672 1166.84 14 1196.23 14H1296H1545.77H1683.9C1719.26 14 1754.49 18.2861 1788.82 26.7644L1810.22 32.0499C1871.08 47.0825 1934.84 45.7586 1995.03 28.2124V28.2124C2027.36 18.7853 2060.88 14 2094.56 14H2351" stroke="#250028" stroke-width="4" stroke-linecap="round" stroke-dasharray="8 8"/>
<path d="M2350.54 3.42972C2354.25 7.47764 2369.11 13.866 2367.9 15.9974C2366.54 18.3732 2361.72 19.0366 2357.97 20.9029C2354.28 22.7437 2351.9 23.4405 2348.96 25.3902C2347.85 26.1273 2348.09 24.6335 2347.97 23.7728C2347.19 18.1177 2347.23 12.4138 2347.47 6.71965C2347.51 5.90751 2346.98 2.60283 2348.15 2.44108C2348.7 2.36434 2348.83 2.45945 2349.3 2.5946C2349.87 2.76021 2350.13 2.9866 2350.54 3.42972Z" fill="#FF2882" stroke="#250028" stroke-width="3" stroke-linecap="round"/>
</g>
<defs>
<clipPath id="clip0_433_20647">
<rect width="2371" height="55" fill="white"/>
</clipPath>
</defs>
</svg>
