<svg width="4065" height="55" viewBox="0 0 4065 55" fill="none" xmlns="http://www.w3.org/2000/svg">
<g clip-path="url(#clip0_433_20632)">
<path d="M831 14H943.808C970.365 14 996.854 16.6898 1022.87 22.0282V22.0282C1067.91 31.2711 1114.23 32.5441 1159.71 25.7894L1195.43 20.4841C1224.5 16.1672 1253.84 14 1283.23 14H1383H1632.77H1770.9C1806.26 14 1841.49 18.2861 1875.82 26.7644L1897.22 32.0499C1958.08 47.0825 2021.84 45.7586 2082.03 28.2124V28.2124C2114.36 18.7853 2147.88 14 2181.56 14H2438" stroke="#250028" stroke-width="4" stroke-linecap="round" stroke-dasharray="8 8"/>
<path d="M-776 14H-663.192C-636.635 14 -610.146 16.6898 -584.131 22.0282V22.0282C-539.089 31.2711 -492.774 32.5441 -447.292 25.7894L-411.57 20.4841C-382.502 16.1672 -353.157 14 -323.771 14H-224H25.7708H163.901C199.26 14 234.489 18.2861 268.816 26.7644L290.217 32.0499C351.081 47.0825 414.838 45.7586 475.027 28.2124V28.2124C507.365 18.7853 540.878 14 574.561 14H831" stroke="#250028" stroke-width="4" stroke-linecap="round" stroke-dasharray="8 8"/>
<path d="M2438 14H2550.81C2577.36 14 2603.85 16.6898 2629.87 22.0282V22.0282C2674.91 31.2711 2721.23 32.5441 2766.71 25.7894L2802.43 20.4841C2831.5 16.1672 2860.84 14 2890.23 14H2990H3239.77H3377.9C3413.26 14 3448.49 18.2861 3482.82 26.7644L3504.22 32.0499C3565.08 47.0825 3628.84 45.7586 3689.03 28.2124V28.2124C3721.36 18.7853 3754.88 14 3788.56 14H4045" stroke="#250028" stroke-width="4" stroke-linecap="round" stroke-dasharray="8 8"/>
<path d="M4046.54 3.42972C4050.25 7.47764 4065.11 13.866 4063.9 15.9974C4062.54 18.3732 4057.72 19.0366 4053.97 20.9029C4050.28 22.7437 4047.9 23.4405 4044.96 25.3902C4043.85 26.1273 4044.09 24.6335 4043.97 23.7728C4043.19 18.1177 4043.23 12.4138 4043.47 6.71965C4043.51 5.90751 4042.98 2.60283 4044.15 2.44108C4044.7 2.36434 4044.83 2.45945 4045.3 2.5946C4045.87 2.76021 4046.13 2.9866 4046.54 3.42972Z" fill="#FF2882" stroke="#250028" stroke-width="3" stroke-linecap="round"/>
</g>
<defs>
<clipPath id="clip0_433_20632">
<rect width="4065" height="55" fill="white"/>
</clipPath>
</defs>
</svg>
