<svg width="120" height="41" viewBox="0 0 120 41" fill="none" xmlns="http://www.w3.org/2000/svg">
<g id="Download_on_the_App_Store_Badge_US-UK_RGB_blk_092917 1" clip-path="url(#clip0_96_8899)">
<g id="Group">
<g id="Group_2">
<g id="Group_3">
<path id="Vector" d="M110.303 0.50013H9.70265C9.33595 0.50013 8.97365 0.50013 8.60792 0.50213C8.30177 0.50413 7.99806 0.50994 7.68897 0.51483C7.01748 0.522732 6.34758 0.581806 5.68507 0.69154C5.02349 0.803663 4.38264 1.01505 3.78419 1.31854C3.18647 1.6246 2.64031 2.0223 2.16554 2.4972C1.68827 2.97077 1.29043 3.51815 0.987319 4.11829C0.683369 4.71724 0.472609 5.35907 0.362319 6.02161C0.25098 6.68332 0.191067 7.35265 0.183119 8.02361C0.173839 8.33021 0.172859 8.63783 0.167969 8.94447V32.0587C0.172859 32.3692 0.173839 32.67 0.183119 32.9806C0.19107 33.6516 0.250982 34.3209 0.362319 34.9825C0.472305 35.6455 0.683077 36.2877 0.987319 36.8868C1.29029 37.485 1.68819 38.0302 2.16554 38.5011C2.63851 38.9781 3.18502 39.3761 3.78419 39.6798C4.38264 39.9841 5.02342 40.1968 5.68507 40.3106C6.34769 40.4195 7.01753 40.4786 7.68897 40.4874C7.99806 40.4942 8.30177 40.4981 8.60792 40.4981C8.97364 40.5001 9.33597 40.5001 9.70265 40.5001H110.303C110.662 40.5001 111.027 40.5001 111.387 40.4981C111.691 40.4981 112.004 40.4942 112.309 40.4874C112.979 40.4791 113.647 40.42 114.309 40.3106C114.972 40.196 115.616 39.9834 116.217 39.6798C116.815 39.3759 117.361 38.978 117.834 38.5011C118.31 38.0284 118.709 37.4836 119.016 36.8868C119.318 36.2872 119.526 35.6451 119.635 34.9825C119.746 34.3208 119.808 33.6516 119.82 32.9806C119.824 32.67 119.824 32.3692 119.824 32.0587C119.832 31.6954 119.832 31.3341 119.832 30.9649V10.0363C119.832 9.67005 119.832 9.30677 119.824 8.94447C119.824 8.63783 119.824 8.33021 119.82 8.02357C119.808 7.35255 119.746 6.68337 119.635 6.02157C119.526 5.35941 119.317 4.71763 119.016 4.11825C118.398 2.91533 117.42 1.93616 116.217 1.31845C115.615 1.0157 114.972 0.80437 114.309 0.69145C113.648 0.581233 112.979 0.522138 112.309 0.51469C112.004 0.50981 111.691 0.50395 111.387 0.502C111.027 0.5 110.662 0.50013 110.303 0.50013Z" fill="#A6A6A6"/>
<path id="Vector_2" d="M8.61088 39.625C8.3062 39.625 8.00888 39.6211 7.70659 39.6143C7.08037 39.6061 6.45562 39.5516 5.83745 39.4512C5.26104 39.3519 4.70266 39.1673 4.18071 38.9033C3.66355 38.6415 3.19186 38.2983 2.78371 37.8867C2.36965 37.48 2.02493 37.0082 1.7632 36.4902C1.49859 35.9688 1.31547 35.4099 1.2202 34.833C1.11733 34.2131 1.06167 33.5863 1.0537 32.958C1.04736 32.7471 1.03906 32.0449 1.03906 32.0449V8.94434C1.03906 8.94434 1.0479 8.25293 1.05375 8.0498C1.06138 7.42248 1.11671 6.79665 1.21928 6.17773C1.31472 5.59925 1.49799 5.03875 1.76274 4.51563C2.02351 3.99794 2.36632 3.52586 2.77788 3.11768C3.18899 2.70562 3.66218 2.3606 4.18022 2.09521C4.70097 1.83209 5.2583 1.64873 5.83354 1.55127C6.45374 1.44984 7.08066 1.395 7.70905 1.38721L8.61137 1.375H111.38L112.293 1.3877C112.916 1.3951 113.537 1.44945 114.151 1.55029C114.732 1.64898 115.296 1.83362 115.822 2.09814C116.86 2.63299 117.705 3.47916 118.237 4.51807C118.498 5.03758 118.678 5.59351 118.773 6.16699C118.876 6.79099 118.934 7.42174 118.946 8.0542C118.949 8.3374 118.949 8.6416 118.949 8.94434C118.957 9.31934 118.957 9.67627 118.957 10.0361V30.9648C118.957 31.3281 118.957 31.6826 118.949 32.04C118.949 32.3652 118.949 32.6631 118.945 32.9697C118.934 33.5909 118.877 34.2104 118.774 34.8232C118.681 35.4043 118.499 35.9675 118.234 36.4932C117.971 37.0056 117.628 37.4733 117.219 37.8789C116.81 38.2927 116.338 38.6379 115.819 38.9014C115.294 39.1674 114.732 39.3527 114.151 39.4512C113.533 39.5522 112.908 39.6067 112.282 39.6143C111.989 39.6211 111.683 39.625 111.385 39.625L110.301 39.627L8.61088 39.625Z" fill="black"/>
</g>
<g id="&#60;Group&#62;">
<g id="&#60;Group&#62;_2">
<g id="&#60;Group&#62;_3">
<path id="&#60;Path&#62;" d="M24.9379 20.8007C24.9487 19.966 25.1704 19.1477 25.5824 18.4217C25.9944 17.6957 26.5834 17.0858 27.2945 16.6486C26.8428 16.0035 26.2468 15.4725 25.554 15.098C24.8612 14.7234 24.0905 14.5156 23.3033 14.491C21.6241 14.3147 19.9961 15.4958 19.1404 15.4958C18.2682 15.4958 16.9507 14.5085 15.5319 14.5376C14.6143 14.5673 13.7199 14.8341 12.936 15.3122C12.1522 15.7903 11.5055 16.4632 11.059 17.2655C9.12502 20.6139 10.5676 25.535 12.4202 28.2416C13.3471 29.5669 14.4304 31.0474 15.8478 30.9949C17.2349 30.9374 17.7529 30.1104 19.4272 30.1104C21.086 30.1104 21.572 30.9949 23.0182 30.9615C24.5066 30.9374 25.4444 29.6303 26.3388 28.2924C27.0047 27.348 27.5172 26.3043 27.8572 25.1999C26.9925 24.8341 26.2546 24.222 25.7354 23.4397C25.2163 22.6574 24.9389 21.7396 24.9379 20.8007Z" fill="white"/>
<path id="&#60;Path&#62;_2" d="M22.2075 12.7109C23.019 11.7367 23.4188 10.4845 23.322 9.22028C22.0822 9.3505 20.9369 9.94306 20.1144 10.8799C19.7123 11.3376 19.4043 11.87 19.2081 12.4468C19.0118 13.0235 18.9312 13.6333 18.9707 14.2413C19.5909 14.2477 20.2044 14.1132 20.765 13.8482C21.3257 13.5831 21.8189 13.1942 22.2075 12.7109Z" fill="white"/>
</g>
</g>
<g id="Group_4">
<path id="Vector_3" d="M42.4727 27.6396H37.7393L36.6025 30.9961H34.5977L39.0811 18.5781H41.1641L45.6475 30.9961H43.6084L42.4727 27.6396ZM38.2295 26.0908H41.9815L40.1319 20.6435H40.0801L38.2295 26.0908Z" fill="white"/>
<path id="Vector_4" d="M55.3291 26.4697C55.3291 29.2832 53.8233 31.0908 51.5508 31.0908C50.9752 31.1209 50.4027 30.9883 49.8989 30.7082C49.3951 30.428 48.9803 30.0117 48.7022 29.5068H48.6592V33.9912H46.8008V21.9423H48.5996V23.4482H48.6338C48.9248 22.9457 49.3465 22.5316 49.8541 22.2497C50.3618 21.9679 50.9363 21.8289 51.5166 21.8476C53.8144 21.8476 55.3291 23.664 55.3291 26.4697ZM53.419 26.4697C53.419 24.6367 52.4717 23.4316 51.0264 23.4316C49.6065 23.4316 48.6514 24.6621 48.6514 26.4697C48.6514 28.2939 49.6065 29.5156 51.0264 29.5156C52.4717 29.5156 53.419 28.3193 53.419 26.4697Z" fill="white"/>
<path id="Vector_5" d="M65.294 26.4697C65.294 29.2832 63.7881 31.0908 61.5157 31.0908C60.94 31.121 60.3675 30.9883 59.8637 30.7082C59.3599 30.4281 58.9452 30.0117 58.667 29.5068H58.624V33.9912H56.7656V21.9424H58.5644V23.4483H58.5986C58.8896 22.9458 59.3113 22.5316 59.8189 22.2498C60.3266 21.9679 60.9011 21.829 61.4814 21.8477C63.7793 21.8477 65.294 23.6641 65.294 26.4697ZM63.3838 26.4697C63.3838 24.6367 62.4365 23.4317 60.9912 23.4317C59.5713 23.4317 58.6162 24.6621 58.6162 26.4697C58.6162 28.294 59.5713 29.5156 60.9912 29.5156C62.4366 29.5156 63.3838 28.3194 63.3838 26.4697Z" fill="white"/>
<path id="Vector_6" d="M71.8789 27.5361C72.0166 28.7676 73.2129 29.5761 74.8477 29.5761C76.4141 29.5761 77.541 28.7675 77.541 27.6572C77.541 26.6933 76.8614 26.1162 75.252 25.7207L73.6426 25.333C71.3623 24.7822 70.3037 23.7158 70.3037 21.9853C70.3037 19.8427 72.1709 18.371 74.8223 18.371C77.4463 18.371 79.2451 19.8427 79.3057 21.9853H77.4297C77.3174 20.746 76.293 19.998 74.7959 19.998C73.2988 19.998 72.2744 20.7548 72.2744 21.8564C72.2744 22.7343 72.9287 23.2509 74.5293 23.6464L75.8975 23.9823C78.4453 24.5849 79.5039 25.6083 79.5039 27.4247C79.5039 29.748 77.6533 31.203 74.71 31.203C71.9561 31.203 70.0967 29.7821 69.9766 27.536L71.8789 27.5361Z" fill="white"/>
<path id="Vector_7" d="M83.5156 19.7998V21.9424H85.2373V23.4141H83.5156V28.4053C83.5156 29.1807 83.8603 29.542 84.6172 29.542C84.8216 29.5384 85.0256 29.5241 85.2285 29.499V30.9619C84.8882 31.0255 84.5424 31.0543 84.1963 31.0478C82.3633 31.0478 81.6484 30.3593 81.6484 28.6035V23.4141H80.332V21.9424H81.6484V19.7998H83.5156Z" fill="white"/>
<path id="Vector_8" d="M86.2344 26.4697C86.2344 23.6211 87.9121 21.8311 90.5283 21.8311C93.1533 21.8311 94.8232 23.6211 94.8232 26.4697C94.8232 29.3262 93.1621 31.1084 90.5283 31.1084C87.8955 31.1084 86.2344 29.3262 86.2344 26.4697ZM92.9297 26.4697C92.9297 24.5156 92.0342 23.3623 90.5283 23.3623C89.0225 23.3623 88.1279 24.5244 88.1279 26.4697C88.1279 28.4316 89.0225 29.5762 90.5283 29.5762C92.0342 29.5762 92.9297 28.4316 92.9297 26.4697Z" fill="white"/>
<path id="Vector_9" d="M96.3555 21.9424H98.1279V23.4834H98.1709C98.2909 23.0021 98.5728 22.5768 98.9694 22.2789C99.366 21.981 99.853 21.8287 100.349 21.8476C100.563 21.8469 100.776 21.8702 100.985 21.917V23.6553C100.715 23.5726 100.433 23.5347 100.15 23.543C99.8804 23.532 99.6113 23.5796 99.3614 23.6825C99.1116 23.7854 98.887 23.9411 98.703 24.139C98.519 24.3369 98.38 24.5723 98.2956 24.8289C98.2112 25.0856 98.1833 25.3575 98.2139 25.626V30.9961H96.3555L96.3555 21.9424Z" fill="white"/>
<path id="Vector_10" d="M109.554 28.3369C109.304 29.9805 107.703 31.1084 105.655 31.1084C103.021 31.1084 101.387 29.3437 101.387 26.5127C101.387 23.6729 103.03 21.8311 105.577 21.8311C108.082 21.8311 109.657 23.5518 109.657 26.2969V26.9336H103.263V27.0459C103.233 27.3791 103.275 27.7148 103.385 28.0306C103.495 28.3464 103.671 28.6352 103.902 28.8778C104.132 29.1203 104.411 29.3111 104.721 29.4374C105.031 29.5637 105.364 29.6226 105.698 29.6103C106.137 29.6515 106.578 29.5498 106.955 29.3203C107.332 29.0909 107.624 28.746 107.789 28.3369L109.554 28.3369ZM103.271 25.6348H107.798C107.815 25.3352 107.769 25.0354 107.664 24.7541C107.56 24.4729 107.398 24.2164 107.19 24.0006C106.981 23.7849 106.73 23.6145 106.453 23.5003C106.175 23.3861 105.877 23.3305 105.577 23.3369C105.275 23.3351 104.975 23.3933 104.694 23.508C104.414 23.6227 104.16 23.7918 103.946 24.0054C103.731 24.2191 103.561 24.473 103.446 24.7527C103.33 25.0323 103.271 25.3321 103.271 25.6348Z" fill="white"/>
</g>
</g>
</g>
<g id="&#60;Group&#62;_4">
<g id="Group_5">
<path id="Vector_11" d="M37.9951 9.23101C38.3847 9.20305 38.7757 9.26191 39.1398 9.40335C39.5039 9.54478 39.8321 9.76526 40.1007 10.0489C40.3693 10.3325 40.5716 10.6722 40.693 11.0435C40.8144 11.4148 40.8519 11.8083 40.8027 12.1959C40.8027 14.1021 39.7725 15.1979 37.9951 15.1979H35.8398V9.23101H37.9951ZM36.7666 14.354H37.8916C38.17 14.3707 38.4486 14.325 38.7071 14.2204C38.9657 14.1158 39.1976 13.9548 39.3861 13.7493C39.5746 13.5437 39.7149 13.2987 39.7968 13.0321C39.8786 12.7655 39.9 12.4839 39.8594 12.208C39.8971 11.9332 39.8735 11.6534 39.7904 11.3887C39.7073 11.1241 39.5667 10.8811 39.3786 10.6771C39.1905 10.4732 38.9597 10.3134 38.7026 10.2092C38.4455 10.1049 38.1686 10.0589 37.8916 10.0742H36.7666V14.354Z" fill="white"/>
<path id="Vector_12" d="M41.8499 12.9443C41.8216 12.6484 41.8554 12.3499 41.9493 12.0678C42.0431 11.7857 42.1949 11.5264 42.3948 11.3064C42.5948 11.0864 42.8385 10.9107 43.1103 10.7904C43.3822 10.6701 43.6762 10.608 43.9734 10.608C44.2707 10.608 44.5647 10.6701 44.8365 10.7904C45.1084 10.9107 45.3521 11.0864 45.552 11.3064C45.752 11.5264 45.9037 11.7857 45.9976 12.0678C46.0914 12.3499 46.1253 12.6484 46.097 12.9443C46.1258 13.2406 46.0924 13.5396 45.9988 13.8221C45.9052 14.1046 45.7535 14.3644 45.5535 14.5848C45.3535 14.8052 45.1096 14.9814 44.8375 15.1019C44.5654 15.2225 44.271 15.2847 43.9734 15.2847C43.6758 15.2847 43.3815 15.2225 43.1093 15.1019C42.8372 14.9814 42.5933 14.8052 42.3933 14.5848C42.1933 14.3644 42.0417 14.1046 41.9481 13.8221C41.8545 13.5396 41.821 13.2406 41.8499 12.9443ZM45.1829 12.9443C45.1829 11.9683 44.7444 11.3975 43.9749 11.3975C43.2024 11.3975 42.7679 11.9683 42.7679 12.9444C42.7679 13.9282 43.2025 14.4946 43.9749 14.4946C44.7444 14.4946 45.1829 13.9243 45.1829 12.9443Z" fill="white"/>
<path id="Vector_13" d="M51.7422 15.1978H50.8203L49.8897 11.8813H49.8193L48.8926 15.1978H47.9795L46.7383 10.6948H47.6397L48.4463 14.1308H48.5127L49.4385 10.6948H50.291L51.2168 14.1308H51.2871L52.0898 10.6948H52.9785L51.7422 15.1978Z" fill="white"/>
<path id="Vector_14" d="M54.0234 10.6948H54.8789V11.4101H54.9453C55.058 11.1532 55.248 10.9378 55.4888 10.794C55.7297 10.6502 56.0095 10.5852 56.2891 10.6079C56.5082 10.5914 56.7282 10.6244 56.9328 10.7045C57.1374 10.7846 57.3213 10.9097 57.471 11.0706C57.6207 11.2314 57.7323 11.4239 57.7975 11.6337C57.8627 11.8435 57.8798 12.0653 57.8477 12.2827V15.1977H56.959V12.5058C56.959 11.7822 56.6445 11.4223 55.9873 11.4223C55.8386 11.4154 55.6901 11.4407 55.552 11.4966C55.4139 11.5524 55.2896 11.6374 55.1875 11.7458C55.0853 11.8542 55.0079 11.9834 54.9603 12.1245C54.9128 12.2656 54.8963 12.4154 54.9121 12.5635V15.1977H54.0234L54.0234 10.6948Z" fill="white"/>
<path id="Vector_15" d="M59.2617 8.93701H60.1504V15.1978H59.2617V8.93701Z" fill="white"/>
<path id="Vector_16" d="M61.385 12.9444C61.3567 12.6484 61.3906 12.3499 61.4845 12.0678C61.5783 11.7857 61.7301 11.5263 61.9301 11.3064C62.13 11.0864 62.3738 10.9106 62.6456 10.7903C62.9175 10.67 63.2115 10.6079 63.5088 10.6079C63.8061 10.6079 64.1001 10.67 64.372 10.7903C64.6438 10.9106 64.8876 11.0864 65.0875 11.3064C65.2875 11.5263 65.4393 11.7857 65.5331 12.0678C65.627 12.3499 65.6609 12.6484 65.6326 12.9444C65.6614 13.2406 65.6279 13.5396 65.5343 13.8221C65.4407 14.1046 65.289 14.3645 65.089 14.5849C64.8889 14.8053 64.645 14.9814 64.3729 15.1019C64.1008 15.2225 63.8064 15.2847 63.5088 15.2847C63.2112 15.2847 62.9168 15.2225 62.6447 15.1019C62.3726 14.9814 62.1286 14.8053 61.9286 14.5849C61.7286 14.3645 61.5769 14.1046 61.4833 13.8221C61.3897 13.5396 61.3562 13.2406 61.385 12.9444ZM64.718 12.9444C64.718 11.9683 64.2795 11.3975 63.51 11.3975C62.7376 11.3975 62.303 11.9683 62.303 12.9444C62.303 13.9283 62.7376 14.4947 63.51 14.4947C64.2796 14.4947 64.718 13.9244 64.718 12.9444Z" fill="white"/>
<path id="Vector_17" d="M66.5703 13.9243C66.5703 13.1138 67.1738 12.6465 68.2451 12.5801L69.4648 12.5098V12.1211C69.4648 11.6455 69.1504 11.377 68.543 11.377C68.0469 11.377 67.7031 11.5591 67.6045 11.8774H66.7441C66.835 11.104 67.5625 10.6079 68.584 10.6079C69.7129 10.6079 70.3496 11.1699 70.3496 12.1211V15.1978H69.4941V14.5649H69.4238C69.2811 14.7919 69.0807 14.977 68.8431 15.1012C68.6055 15.2254 68.3391 15.2843 68.0713 15.2719C67.8823 15.2916 67.6912 15.2714 67.5104 15.2127C67.3297 15.154 67.1632 15.0581 67.0218 14.9311C66.8804 14.8042 66.7671 14.649 66.6894 14.4756C66.6116 14.3021 66.5711 14.1144 66.5703 13.9243ZM69.4648 13.5395V13.1631L68.3652 13.2334C67.7451 13.2749 67.4639 13.4858 67.4639 13.8828C67.4639 14.2881 67.8154 14.5239 68.2989 14.5239C68.4405 14.5382 68.5836 14.5239 68.7196 14.4819C68.8556 14.4398 68.9817 14.3707 69.0905 14.2789C69.1993 14.1871 69.2885 14.0743 69.3528 13.9473C69.4171 13.8202 69.4552 13.6816 69.4648 13.5395Z" fill="white"/>
<path id="Vector_18" d="M71.5156 12.9444C71.5156 11.5215 72.2471 10.6201 73.3848 10.6201C73.6662 10.6072 73.9455 10.6746 74.19 10.8145C74.4345 10.9544 74.6342 11.161 74.7656 11.4101H74.832V8.93701H75.7207V15.1978H74.8691V14.4863H74.7988C74.6572 14.7338 74.4506 14.9378 74.2014 15.0763C73.9521 15.2148 73.6697 15.2825 73.3848 15.272C72.2393 15.272 71.5156 14.3706 71.5156 12.9444ZM72.4336 12.9444C72.4336 13.8994 72.8838 14.4741 73.6368 14.4741C74.3858 14.4741 74.8487 13.8911 74.8487 12.9483C74.8487 12.0098 74.3809 11.4185 73.6368 11.4185C72.8887 11.4185 72.4336 11.9971 72.4336 12.9444Z" fill="white"/>
<path id="Vector_19" d="M79.4007 12.9443C79.3724 12.6484 79.4062 12.3499 79.5001 12.0678C79.5939 11.7857 79.7457 11.5264 79.9456 11.3064C80.1455 11.0864 80.3892 10.9107 80.6611 10.7904C80.9329 10.6701 81.2269 10.608 81.5242 10.608C81.8215 10.608 82.1155 10.6701 82.3873 10.7904C82.6592 10.9107 82.9029 11.0864 83.1028 11.3064C83.3028 11.5264 83.4545 11.7857 83.5484 12.0678C83.6422 12.3499 83.676 12.6484 83.6477 12.9443C83.6766 13.2406 83.6431 13.5396 83.5495 13.8221C83.456 14.1046 83.3043 14.3644 83.1043 14.5848C82.9043 14.8052 82.6604 14.9814 82.3883 15.1019C82.1162 15.2225 81.8218 15.2847 81.5242 15.2847C81.2266 15.2847 80.9322 15.2225 80.6601 15.1019C80.388 14.9814 80.1441 14.8052 79.9441 14.5848C79.7441 14.3644 79.5925 14.1046 79.4989 13.8221C79.4053 13.5396 79.3718 13.2406 79.4007 12.9443ZM82.7337 12.9443C82.7337 11.9683 82.2952 11.3975 81.5257 11.3975C80.7532 11.3975 80.3187 11.9683 80.3187 12.9444C80.3187 13.9282 80.7532 14.4946 81.5257 14.4946C82.2952 14.4946 82.7337 13.9243 82.7337 12.9443Z" fill="white"/>
<path id="Vector_20" d="M84.8398 10.6948H85.6953V11.4101H85.7617C85.8744 11.1532 86.0644 10.9378 86.3053 10.794C86.5461 10.6502 86.8259 10.5852 87.1055 10.6079C87.3246 10.5914 87.5446 10.6244 87.7492 10.7045C87.9538 10.7846 88.1377 10.9097 88.2874 11.0706C88.4371 11.2314 88.5487 11.4239 88.6139 11.6337C88.6791 11.8435 88.6962 12.0653 88.6641 12.2827V15.1977H87.7754V12.5058C87.7754 11.7822 87.4609 11.4223 86.8037 11.4223C86.655 11.4154 86.5065 11.4407 86.3684 11.4966C86.2303 11.5524 86.106 11.6374 86.0039 11.7458C85.9017 11.8542 85.8243 11.9834 85.7767 12.1245C85.7292 12.2656 85.7128 12.4154 85.7285 12.5635V15.1977H84.8398V10.6948Z" fill="white"/>
<path id="Vector_21" d="M93.6826 9.57373V10.7153H94.6582V11.4639H93.6826V13.7793C93.6826 14.251 93.877 14.4575 94.3193 14.4575C94.4326 14.4572 94.5457 14.4503 94.6582 14.437V15.1772C94.4986 15.2058 94.3369 15.221 94.1748 15.2226C93.1865 15.2226 92.793 14.875 92.793 14.0068V11.4638H92.0781V10.7153H92.793V9.57373H93.6826Z" fill="white"/>
<path id="Vector_22" d="M95.875 8.93701H96.7559V11.4185H96.8262C96.9443 11.1591 97.1395 10.9425 97.3852 10.7982C97.6309 10.6539 97.9151 10.5888 98.1992 10.6118C98.4171 10.6 98.635 10.6364 98.8373 10.7184C99.0396 10.8004 99.2213 10.9261 99.3694 11.0864C99.5175 11.2468 99.6284 11.4378 99.6942 11.646C99.76 11.8541 99.779 12.0742 99.7499 12.2905V15.1978H98.8604V12.5098C98.8604 11.7905 98.5254 11.4263 97.8975 11.4263C97.7448 11.4137 97.5911 11.4347 97.4473 11.4878C97.3036 11.5408 97.1731 11.6247 97.0651 11.7334C96.9571 11.8421 96.8742 11.9732 96.8221 12.1173C96.7701 12.2614 96.7501 12.4152 96.7637 12.5679V15.1977H95.875L95.875 8.93701Z" fill="white"/>
<path id="Vector_23" d="M104.929 13.9819C104.809 14.3935 104.547 14.7495 104.19 14.9876C103.834 15.2258 103.405 15.3309 102.978 15.2847C102.682 15.2925 102.387 15.2357 102.114 15.1182C101.842 15.0006 101.598 14.8252 101.4 14.6041C101.202 14.3829 101.055 14.1214 100.968 13.8376C100.881 13.5537 100.858 13.2544 100.898 12.9605C100.859 12.6656 100.883 12.3656 100.969 12.081C101.056 11.7963 101.203 11.5335 101.399 11.3105C101.596 11.0874 101.839 10.9092 102.11 10.788C102.382 10.6668 102.677 10.6054 102.974 10.6079C104.227 10.6079 104.983 11.4639 104.983 12.8779V13.188H101.803V13.2378C101.789 13.4031 101.81 13.5694 101.864 13.7261C101.918 13.8829 102.005 14.0266 102.118 14.1481C102.231 14.2695 102.368 14.366 102.52 14.4314C102.672 14.4968 102.837 14.5297 103.003 14.5278C103.215 14.5533 103.431 14.5151 103.621 14.4178C103.812 14.3206 103.97 14.1689 104.074 13.9819L104.929 13.9819ZM101.803 12.5308H104.078C104.089 12.3796 104.068 12.2278 104.017 12.0851C103.967 11.9424 103.886 11.8119 103.782 11.7021C103.677 11.5922 103.551 11.5054 103.411 11.4472C103.271 11.3891 103.121 11.3608 102.969 11.3643C102.816 11.3623 102.663 11.3912 102.521 11.4491C102.378 11.5071 102.249 11.5929 102.14 11.7017C102.032 11.8104 101.946 11.9397 101.888 12.0821C101.83 12.2245 101.801 12.3771 101.803 12.5308Z" fill="white"/>
</g>
</g>
</g>
</g>
<defs>
<clipPath id="clip0_96_8899">
<rect width="119.664" height="40" fill="white" transform="translate(0.167969 0.5)"/>
</clipPath>
</defs>
</svg>
