<svg width="104" height="104" viewBox="0 0 104 104" fill="none" xmlns="http://www.w3.org/2000/svg">
<path d="M79.9518 14.1435C98.3526 27.6681 104.087 45.0748 97.1544 66.3636C90.222 87.6523 74.8594 98.8394 51.0667 99.9247C27.274 101.01 12.3393 90.3656 6.26278 67.9915C0.186215 45.6175 6.34836 27.6681 24.7492 14.1435C43.1501 0.618843 61.5509 0.618842 79.9518 14.1435Z" fill="#FFF1FA" fill-opacity="0.01"/>
<path d="M55.5647 50.4645C48.4428 49.9005 41.9931 51.6927 36.8431 54.346C35.0375 53.9032 33.3136 51.3359 31.987 49.3601C31.439 48.544 30.9589 47.8288 30.5686 47.406C23.6366 39.8983 25.5315 26.6906 35.6625 23.3849C53.2222 17.6676 56.4228 32.7375 57.0376 35.6326C57.0473 35.6779 57.0563 35.7204 57.0647 35.7596C57.7996 39.1874 57.298 42.8225 56.7726 46.2416C56.7473 46.4074 56.1125 48.6971 55.5647 50.4645Z" fill="white" fill-opacity="0.25" stroke="#250028" stroke-width="2" stroke-linecap="round" stroke-linejoin="round"/>
<path d="M34.1967 55.8507C40.2391 52.0739 48.6531 49.2922 58.0739 50.759C66.1135 52.0109 73.9658 53.6767 76.709 60.0765C79.3235 66.1756 75.3789 71.7601 71.1768 75.3624C64.1555 81.3655 51.1833 82.7306 42.3498 81.468C39.1684 81.0187 35.2848 80.5957 32.7422 78.4152C25.2062 71.9563 25.3698 61.3653 34.1967 55.8507Z" fill="#FFB905"/>
<path d="M57.9226 50.7358C52.5014 49.9169 47.4168 50.5024 42.9297 51.8701C44.539 55.1606 46.2963 59.5267 47.2933 62.1902C49.4739 68.041 50.2043 73.1776 50.2043 79.4073C50.2043 80.2343 50.198 81.0563 50.1824 81.8772C54.5661 81.7512 59.2064 81.0547 63.3319 79.6337C63.3294 79.3742 63.326 79.1111 63.3228 78.8449C63.3152 78.2364 63.3074 77.6105 63.3074 76.9679C63.3074 70.0931 61.2449 58.3076 57.9226 50.7358Z" fill="#FFE382"/>
<path d="M34.1967 55.8507C40.2391 52.0739 48.6531 49.2922 58.0739 50.759C66.1135 52.0109 73.9658 53.6767 76.709 60.0765C79.3235 66.1756 75.3789 71.7601 71.1768 75.3624C64.1555 81.3655 51.1833 82.7306 42.3498 81.468C39.1684 81.0187 35.2848 80.5957 32.7422 78.4152C25.2062 71.9563 25.3698 61.3653 34.1967 55.8507Z" stroke="#250028" stroke-width="2" stroke-linecap="round" stroke-linejoin="round"/>
<path d="M57.9226 50.7358C52.5014 49.9169 47.4168 50.5024 42.9297 51.8701C44.539 55.1606 46.2963 59.5267 47.2933 62.1902C49.4739 68.041 50.2043 73.1776 50.2043 79.4073C50.2043 80.2343 50.198 81.0563 50.1824 81.8772C54.5661 81.7512 59.2064 81.0547 63.3319 79.6337C63.3294 79.3742 63.326 79.1111 63.3228 78.8449C63.3152 78.2364 63.3074 77.6105 63.3074 76.9679C63.3074 70.0931 61.2449 58.3076 57.9226 50.7358Z" stroke="#250028" stroke-width="2" stroke-linecap="round" stroke-linejoin="round"/>
<path d="M34.0536 65.0383C33.8008 64.1932 33.8524 63.5537 34.0536 62.7201C34.48 60.9535 36.4532 60.0598 37.7322 60.3564C38.0976 60.585 38.3352 60.6089 38.4247 60.7159C38.9741 61.2081 39.2275 61.8908 39.3471 62.3775C39.5171 63.0702 39.5373 63.8398 39.445 64.5306C39.3574 65.1859 39.1399 65.9841 38.6502 66.5901C38.3901 66.9118 37.9977 67.2449 37.451 67.3881C35.1286 67.5962 34.4819 66.4702 34.0536 65.0383Z" fill="#250028"/>
<path d="M48.2657 50.6873C51.3587 50.2539 54.6502 50.2258 58.0748 50.759C61.8317 51.344 65.5476 52.0194 68.7205 53.226C68.9106 52.8388 69.1037 52.4293 69.2863 52.042C69.662 51.2455 69.9934 50.5426 70.1638 50.3186C71.2702 48.8365 72.1391 47.0346 72.9754 45.3004C73.2022 44.8301 73.4266 44.3647 73.6527 43.9121C77.6366 35.9313 75.7155 27.9395 66.7752 24.8104C58.5414 21.9277 50.905 28.127 47.885 36.1951C46.7578 39.2031 47.0642 42.0488 47.3871 45.0489C47.4603 45.7286 47.5343 46.4161 47.5928 47.1153C47.6279 47.541 47.8791 49.0803 48.2657 50.6873Z" fill="white" fill-opacity="0.25" stroke="#250028" stroke-width="2" stroke-linecap="round" stroke-linejoin="round"/>
</svg>
