<svg width="16" height="16" viewBox="0 0 16 16" fill="none" xmlns="http://www.w3.org/2000/svg">
<g id="add-2--remove-bold-cross-buttons-button-add-plus-+-mathematics-math">
<path id="Vector" d="M15.4275 7.42855C15.4275 7.12545 15.307 6.83476 15.0927 6.62043C14.8784 6.40611 14.5877 6.2857 14.2846 6.2857H9.71317V1.71427C9.71317 1.41116 9.59276 1.12047 9.37843 0.906146C9.16411 0.691819 8.87342 0.571411 8.57031 0.571411H7.42746C7.12435 0.571411 6.83366 0.691819 6.61933 0.906146C6.40501 1.12047 6.2846 1.41116 6.2846 1.71427V6.2857H1.71317C1.41007 6.2857 1.11937 6.40611 0.905048 6.62043C0.69072 6.83476 0.570313 7.12545 0.570312 7.42855V8.57141C0.570313 8.87452 0.69072 9.16521 0.905048 9.37953C1.11937 9.59386 1.41007 9.71427 1.71317 9.71427H6.2846V14.2857C6.2846 14.5888 6.40501 14.8795 6.61933 15.0938C6.83366 15.3081 7.12435 15.4286 7.42746 15.4286H8.57031C8.87342 15.4286 9.16411 15.3081 9.37843 15.0938C9.59276 14.8795 9.71317 14.5888 9.71317 14.2857V9.71427H14.2846C14.5877 9.71427 14.8784 9.59386 15.0927 9.37953C15.307 9.16521 15.4275 8.87452 15.4275 8.57141V7.42855Z" stroke="#250028" stroke-width="1.14286" stroke-linecap="round" stroke-linejoin="round"/>
</g>
</svg>
