<svg width="166" height="45" viewBox="0 0 166 45" fill="none" xmlns="http://www.w3.org/2000/svg">
<g id="Shopify-App-Store-Badge-Final-Black 1" clip-path="url(#clip0_96_11163)">
<g id="Group">
<g id="Group_2">
<path id="Vector" d="M4.982 44C2.51 44 0.5 42.025 0.5 39.598V5.402C0.5 2.975 2.51 1 4.982 1H161.019C163.49 1 165.501 2.975 165.501 5.402V39.598C165.501 42.025 163.491 44 161.019 44H4.982Z" fill="black"/>
<path id="Vector_2" d="M161.019 44.375H4.981C2.303 44.375 0.125 42.232 0.125 39.598V5.402C0.125 2.768 2.304 0.625 4.981 0.625H161.018C163.696 0.625 165.874 2.768 165.874 5.402V39.598C165.875 42.232 163.696 44.375 161.019 44.375ZM4.981 1.375C2.717 1.375 0.875 3.182 0.875 5.402V39.598C0.875 41.818 2.717 43.625 4.981 43.625H161.018C163.283 43.625 165.124 41.818 165.124 39.598V5.402C165.124 3.182 163.282 1.375 161.018 1.375H4.981Z" fill="#C3CCD4"/>
</g>
</g>
<g id="Group_3">
<g id="Group_4">
<g id="Group_5">
<path id="Vector_3" d="M28.3213 13.673C28.2323 13.666 26.3403 13.525 26.3403 13.525C26.3403 13.525 25.0263 12.221 24.8823 12.076C24.8473 12.041 24.8043 12.017 24.7573 12.002L23.8203 33.654L31.2233 32.046C31.2233 32.046 28.5533 13.996 28.5363 13.873C28.5193 13.749 28.4103 13.681 28.3213 13.673Z" fill="white"/>
</g>
<g id="Group_6">
<path id="Vector_4" d="M24.347 12.009C24.331 12.014 24.06 12.097 23.612 12.236C23.173 10.973 22.399 9.81297 21.036 9.81297C20.998 9.81297 20.96 9.81497 20.921 9.81697C20.533 9.30497 20.054 9.08197 19.639 9.08197C16.465 9.08197 14.949 13.05 14.473 15.066C13.24 15.448 12.364 15.72 12.252 15.755C11.564 15.971 11.542 15.993 11.452 16.641C11.384 17.132 9.58203 31.062 9.58203 31.062L23.483 33.667L24.421 11.992C24.393 11.997 24.367 12.003 24.347 12.009ZM20.817 12.963C20.817 13.011 20.817 13.056 20.816 13.101C20.043 13.34 19.204 13.6 18.363 13.86C18.835 12.037 19.721 11.157 20.495 10.825C20.69 11.314 20.817 12.016 20.817 12.963ZM19.552 9.93297C19.689 9.93297 19.827 9.97897 19.959 10.07C18.942 10.549 17.851 11.754 17.391 14.162C16.718 14.37 16.06 14.574 15.452 14.763C15.992 12.926 17.272 9.93297 19.552 9.93297ZM20.099 20.665C20.099 20.665 19.277 20.226 18.27 20.226C16.793 20.226 16.719 21.153 16.719 21.386C16.719 22.66 20.04 23.148 20.04 26.132C20.04 28.48 18.551 29.992 16.543 29.992C14.134 29.992 12.901 28.492 12.901 28.492L13.546 26.361C13.546 26.361 14.813 27.448 15.881 27.448C16.579 27.448 16.863 26.898 16.863 26.497C16.863 24.835 14.138 24.761 14.138 22.03C14.138 19.732 15.788 17.508 19.118 17.508C20.401 17.508 21.035 17.876 21.035 17.876L20.099 20.665ZM21.649 12.843C21.649 12.759 21.65 12.677 21.65 12.587C21.65 11.802 21.541 11.17 21.366 10.669C22.068 10.757 22.536 11.556 22.837 12.475C22.484 12.585 22.083 12.709 21.649 12.843Z" fill="white"/>
</g>
</g>
<g id="Group_7">
<path id="Vector_5" d="M42.2717 32.521C39.7817 32.521 38.6267 30.961 38.3867 29.416L39.9917 29.176C40.1867 30.241 40.7117 31.201 42.2717 31.201C43.4417 31.201 44.2817 30.526 44.2817 29.521C44.2817 28.441 43.7117 27.991 42.0467 27.542C39.8867 27.017 38.7467 26.237 38.7467 24.392C38.7467 22.727 40.1117 21.512 42.1667 21.512C44.1917 21.512 45.4367 22.592 45.7217 24.182L44.1467 24.437C43.9367 23.402 43.2167 22.817 42.1677 22.817C40.9677 22.817 40.3377 23.402 40.3377 24.272C40.3377 25.172 40.7277 25.622 42.4977 26.072C44.6727 26.612 45.9177 27.362 45.9177 29.372C45.9167 31.202 44.4617 32.521 42.2717 32.521Z" fill="white"/>
<path id="Vector_6" d="M47.4453 20.912H49.0353V25.727C49.3953 24.992 50.2203 24.377 51.4353 24.377C52.9353 24.377 53.9703 25.247 53.9703 27.317V32.372H52.3503V27.407C52.3503 26.252 51.8703 25.727 50.8353 25.727C49.8753 25.727 49.0353 26.342 49.0353 27.542V32.372H47.4453V20.912Z" fill="white"/>
<path id="Vector_7" d="M55.293 28.157C55.293 25.862 56.883 24.377 59.013 24.377C61.143 24.377 62.733 25.847 62.733 28.127V28.742C62.733 31.052 61.128 32.522 58.998 32.522C56.853 32.522 55.293 31.022 55.293 28.772V28.157ZM59.013 31.247C60.303 31.247 61.083 30.287 61.083 28.772V28.142C61.083 26.597 60.288 25.652 59.013 25.652C57.723 25.652 56.928 26.582 56.928 28.127V28.757C56.928 30.302 57.693 31.247 59.013 31.247Z" fill="white"/>
<path id="Vector_8" d="M65.6994 24.527V25.772C66.1344 25.022 67.0494 24.377 68.1594 24.377C70.0044 24.377 71.3694 25.727 71.3694 28.067V28.742C71.3694 31.097 70.0494 32.522 68.1294 32.522C66.9594 32.522 66.1044 31.922 65.6994 31.172V35.057H64.1094V24.527H65.6994ZM67.7704 31.231C69.0304 31.231 69.7204 30.376 69.7204 28.786V28.111C69.7204 26.461 68.8804 25.651 67.7704 25.651C66.5554 25.651 65.6704 26.461 65.6704 28.156V28.741C65.6694 30.437 66.4944 31.231 67.7704 31.231Z" fill="white"/>
<path id="Vector_9" d="M72.6172 22.247C72.6172 21.707 73.0522 21.287 73.5922 21.287C74.1472 21.287 74.5822 21.707 74.5822 22.247C74.5822 22.787 74.1472 23.207 73.5922 23.207C73.0372 23.207 72.6172 22.787 72.6172 22.247ZM72.7972 24.527H74.4022V32.372H72.7972V24.527Z" fill="white"/>
<path id="Vector_10" d="M76.5747 25.802H75.5547V24.527H76.5747V23.402C76.5747 21.752 77.4447 20.852 79.1097 20.852C79.6197 20.852 80.0097 20.912 80.3247 21.032V22.307C80.1147 22.202 79.6947 22.127 79.3047 22.127C78.4797 22.127 78.1947 22.607 78.1947 23.342V24.527H80.2347V25.802H78.1947V32.372H76.5747V25.802Z" fill="white"/>
<path id="Vector_11" d="M84.722 29.717L86.582 24.527H88.172L84.137 35.057H82.532L83.867 31.592L80.957 24.527H82.697L84.722 29.717Z" fill="white"/>
<path id="Vector_12" d="M97.8909 29.612H94.0959L93.2859 32.372H91.7109L94.9369 21.647H97.2009L100.395 32.372H98.6849L97.8909 29.612ZM94.4559 28.352H97.5309L95.9859 23.042L94.4559 28.352Z" fill="white"/>
<path id="Vector_13" d="M103.188 24.527V25.772C103.624 25.022 104.539 24.377 105.648 24.377C107.494 24.377 108.858 25.727 108.858 28.067V28.742C108.858 31.097 107.539 32.522 105.619 32.522C104.449 32.522 103.594 31.922 103.188 31.172V35.057H101.598V24.527H103.188ZM105.258 31.231C106.518 31.231 107.208 30.376 107.208 28.786V28.111C107.208 26.461 106.368 25.651 105.258 25.651C104.043 25.651 103.158 26.461 103.158 28.156V28.741C103.158 30.437 103.982 31.231 105.258 31.231Z" fill="white"/>
<path id="Vector_14" d="M111.84 24.527V25.772C112.275 25.022 113.19 24.377 114.3 24.377C116.145 24.377 117.51 25.727 117.51 28.067V28.742C117.51 31.097 116.19 32.522 114.27 32.522C113.1 32.522 112.246 31.922 111.84 31.172V35.057H110.25V24.527H111.84ZM113.91 31.231C115.17 31.231 115.859 30.376 115.859 28.786V28.111C115.859 26.461 115.019 25.651 113.91 25.651C112.694 25.651 111.809 26.461 111.809 28.156V28.741C111.81 30.437 112.635 31.231 113.91 31.231Z" fill="white"/>
<path id="Vector_15" d="M125.401 32.521C122.911 32.521 121.756 30.961 121.516 29.416L123.12 29.176C123.315 30.241 123.841 31.201 125.4 31.201C126.57 31.201 127.41 30.526 127.41 29.521C127.41 28.441 126.841 27.991 125.176 27.542C123.016 27.017 121.876 26.237 121.876 24.392C121.876 22.727 123.24 21.512 125.296 21.512C127.32 21.512 128.566 22.592 128.851 24.182L127.276 24.437C127.066 23.402 126.346 22.817 125.297 22.817C124.097 22.817 123.467 23.402 123.467 24.272C123.467 25.172 123.857 25.622 125.626 26.072C127.802 26.612 129.046 27.362 129.046 29.372C129.046 31.202 127.592 32.521 125.401 32.521Z" fill="white"/>
<path id="Vector_16" d="M132.494 22.382V24.527H134.459V25.802H132.494V30.152C132.494 30.872 132.854 31.157 133.515 31.157C133.905 31.157 134.28 31.097 134.55 30.977V32.252C134.249 32.387 133.829 32.477 133.244 32.477C131.64 32.477 130.89 31.682 130.89 30.302V25.802H129.855V24.527H130.89V22.382H132.494Z" fill="white"/>
<path id="Vector_17" d="M135.449 28.157C135.449 25.862 137.039 24.377 139.169 24.377C141.299 24.377 142.889 25.847 142.889 28.127V28.742C142.889 31.052 141.284 32.522 139.154 32.522C137.009 32.522 135.45 31.022 135.45 28.772V28.157H135.449ZM139.169 31.247C140.459 31.247 141.238 30.287 141.238 28.772V28.142C141.238 26.597 140.443 25.652 139.169 25.652C137.879 25.652 137.084 26.582 137.084 28.127V28.757C137.084 30.302 137.849 31.247 139.169 31.247Z" fill="white"/>
<path id="Vector_18" d="M144.27 24.527H145.86V25.922C146.339 24.962 147.015 24.407 148.56 24.422V25.937C146.789 25.952 145.86 26.432 145.86 28.067V32.372H144.27V24.527Z" fill="white"/>
<path id="Vector_19" d="M152.804 32.521C150.659 32.521 149.145 31.111 149.145 28.771V28.156C149.145 25.861 150.645 24.376 152.729 24.376C154.559 24.376 156.165 25.456 156.165 28.081V28.786H150.765C150.781 30.481 151.545 31.276 152.85 31.276C153.991 31.276 154.545 30.571 154.71 29.986L156.105 30.316C155.818 31.382 154.754 32.521 152.804 32.521ZM150.779 27.677H154.574V27.632C154.513 26.192 153.824 25.592 152.728 25.592C151.754 25.592 150.929 26.207 150.779 27.677Z" fill="white"/>
</g>
<g id="Group_8">
<path id="Vector_20" d="M39.8906 12.15H42.7766V12.878H40.8096V14.307H42.3816V15.021H40.8096V17.015H39.8906V12.15Z" fill="white"/>
<path id="Vector_21" d="M44.0312 12.15H44.9573V17.016H44.0312V12.15Z" fill="white"/>
<path id="Vector_22" d="M46.4932 12.15H47.5682L49.3512 15.525V12.15H50.1882V17.016H49.2492L47.3232 13.375V17.016H46.4922L46.4932 12.15Z" fill="white"/>
<path id="Vector_23" d="M53.2395 12.15C54.7845 12.15 55.5605 12.973 55.5605 14.314V14.817C55.5605 16.144 54.7985 17.015 53.2395 17.015H51.6875V12.15H53.2395ZM52.6065 12.871V16.288H53.2055C54.1645 16.288 54.6075 15.77 54.6075 14.818V14.328C54.6075 13.395 54.1995 12.871 53.1985 12.871H52.6065Z" fill="white"/>
<path id="Vector_24" d="M58.8555 12.15H59.7805V17.016H58.8555V12.15Z" fill="white"/>
<path id="Vector_25" d="M62.2574 12.878H60.9844V12.15H64.4484V12.878H63.1834V17.016H62.2584L62.2574 12.878Z" fill="white"/>
<path id="Vector_26" d="M67.3828 14.845V14.307C67.3828 12.98 68.2678 12.088 69.5398 12.088C70.8188 12.088 71.6838 12.952 71.6838 14.3V14.824C71.6838 16.165 70.8468 17.083 69.5338 17.083C68.2208 17.083 67.3828 16.165 67.3828 14.845ZM70.7318 14.838V14.307C70.7318 13.415 70.3098 12.817 69.5408 12.817C68.7718 12.817 68.3428 13.416 68.3428 14.307V14.838C68.3428 15.77 68.7788 16.342 69.5408 16.342C70.3028 16.342 70.7318 15.763 70.7318 14.838Z" fill="white"/>
<path id="Vector_27" d="M73.0049 12.15H74.0799L75.8629 15.525V12.15H76.6999V17.016H75.7609L73.8349 13.375V17.016H73.0039L73.0049 12.15Z" fill="white"/>
<path id="Vector_28" d="M81.0855 12.878H79.8125V12.15H83.2765V12.878H82.0105V17.016H81.0855V12.878Z" fill="white"/>
<path id="Vector_29" d="M84.457 12.15H85.376V14.192H87.255V12.15H88.173V17.016H87.255V14.94H85.376V17.016H84.457V12.15Z" fill="white"/>
<path id="Vector_30" d="M89.6797 12.15H92.5857V12.878H90.5987V14.171H92.2037V14.859H90.5987V16.288H92.6947V17.016H89.6797V12.15Z" fill="white"/>
</g>
</g>
</g>
<defs>
<clipPath id="clip0_96_11163">
<rect width="166" height="45" fill="white"/>
</clipPath>
</defs>
</svg>
