<svg width="24" height="23" viewBox="0 0 24 23" fill="none" xmlns="http://www.w3.org/2000/svg">
<g id="Group">
<path id="Vector" d="M14.8118 12.2031C15.764 13.4003 16.268 14.8925 16.2368 16.4219C16.2368 19.525 14.3618 22.0469 12.0181 22.0469C9.67435 22.0469 7.79935 19.525 7.79935 16.4219C7.7575 14.8971 8.24811 13.4054 9.18685 12.2031" stroke="#250028" stroke-linecap="round" stroke-linejoin="round"/>
<path id="Vector_2" d="M10.4992 10.7875C10.0719 10.173 9.85784 9.43531 9.88985 8.6875C9.88985 7.13125 9.88985 5.875 11.9992 5.875C14.1086 5.875 14.1086 7.13125 14.1086 8.6875C14.1435 9.43997 13.9257 10.1825 13.4899 10.7969" stroke="#250028" stroke-linecap="round" stroke-linejoin="round"/>
<path id="Vector_3" d="M10.7232 6.11875C9.78568 4.55312 10.5919 3.76562 10.5919 3.76562" stroke="#250028" stroke-linecap="round" stroke-linejoin="round"/>
<path id="Vector_4" d="M13.2734 6.11875C14.2109 4.55312 13.4047 3.76562 13.4047 3.76562" stroke="#250028" stroke-linecap="round" stroke-linejoin="round"/>
<path id="Vector_5" d="M14.0625 9.36243L17.625 11.3968C18.0546 11.6426 18.4117 11.9974 18.6602 12.4254C18.9088 12.8534 19.04 13.3394 19.0406 13.8343V20.6406C19.0406 22.0468 18.3375 22.0468 18.3375 22.0468" stroke="#250028" stroke-linecap="round" stroke-linejoin="round"/>
<path id="Vector_6" d="M14.1016 7.98438L18.4516 8.60312C18.841 8.66082 19.2143 8.79804 19.5484 9.00625C20.5328 9.625 22.5484 10.9656 22.5484 11.5" stroke="#250028" stroke-linecap="round" stroke-linejoin="round"/>
<path id="Vector_7" d="M13.875 6.81248L17.1937 3.99998C17.5816 3.67631 17.828 3.21417 17.8805 2.71175C17.933 2.20932 17.7875 1.70622 17.475 1.30935C17.4135 1.21307 17.3325 1.13078 17.2373 1.0678C17.142 1.00481 17.0345 0.962543 16.9219 0.943726" stroke="#250028" stroke-linecap="round" stroke-linejoin="round"/>
<path id="Vector_8" d="M9.93906 9.36243L6.37656 11.3968C5.947 11.6426 5.58991 11.9974 5.34135 12.4254C5.09279 12.8534 4.96157 13.3394 4.96094 13.8343V20.6406C4.96094 22.0468 5.66406 22.0468 5.66406 22.0468" stroke="#250028" stroke-linecap="round" stroke-linejoin="round"/>
<path id="Vector_9" d="M9.9 7.98438L5.55 8.60312C5.17683 8.6669 4.81997 8.80391 4.5 9.00625C3.46875 9.625 1.45312 10.9656 1.45312 11.5" stroke="#250028" stroke-linecap="round" stroke-linejoin="round"/>
<path id="Vector_10" d="M9.96563 7.3L5.27813 6.12813C4.59535 5.95319 4.00315 5.52828 3.61875 4.9375C2.88984 3.96815 2.38984 2.84637 2.15625 1.65625" stroke="#250028" stroke-linecap="round" stroke-linejoin="round"/>
<path id="Vector_11" d="M10.1246 6.81248L6.80581 3.99998C6.41858 3.67796 6.17246 3.21742 6.11992 2.71655C6.06738 2.21567 6.21258 1.71408 6.52456 1.31873C6.58411 1.2199 6.66441 1.13519 6.75991 1.07044C6.85541 1.0057 6.96383 0.962462 7.07768 0.943726" stroke="#250028" stroke-linecap="round" stroke-linejoin="round"/>
<path id="Vector_12" d="M14.0352 7.3L18.7227 6.12813C19.4054 5.95319 19.9976 5.52828 20.382 4.9375C21.1109 3.96815 21.6109 2.84637 21.8445 1.65625" stroke="#250028" stroke-linecap="round" stroke-linejoin="round"/>
</g>
</svg>
